<mxfile host="app.diagrams.net" modified="2023-12-03T20:44:33.460Z" agent="Mozilla/5.0 (Windows NT 10.0; Win64; x64) AppleWebKit/537.36 (KHTML, like Gecko) Chrome/119.0.0.0 Safari/537.36" etag="4uN68qQIub-IeH3r0rRH" version="22.1.5" type="device">
  <diagram name="Page-1" id="zCSlbskoo3t1F2cEUr_5">
    <mxGraphModel dx="1259" dy="673" grid="1" gridSize="10" guides="1" tooltips="1" connect="1" arrows="1" fold="1" page="1" pageScale="1" pageWidth="850" pageHeight="1100" math="0" shadow="0">
      <root>
        <mxCell id="0" />
        <mxCell id="1" parent="0" />
        <mxCell id="owaRIu_LQMwWunl-9coE-1" value="Human User" style="shape=umlActor;verticalLabelPosition=bottom;verticalAlign=top;html=1;outlineConnect=0;" vertex="1" parent="1">
          <mxGeometry x="80" y="230" width="30" height="60" as="geometry" />
        </mxCell>
        <mxCell id="owaRIu_LQMwWunl-9coE-2" value="" style="rounded=0;whiteSpace=wrap;html=1;" vertex="1" parent="1">
          <mxGeometry x="360" y="55" width="650" height="525" as="geometry" />
        </mxCell>
        <mxCell id="owaRIu_LQMwWunl-9coE-3" value="Random Language Page" style="ellipse;whiteSpace=wrap;html=1;" vertex="1" parent="1">
          <mxGeometry x="380" y="90" width="120" height="80" as="geometry" />
        </mxCell>
        <mxCell id="owaRIu_LQMwWunl-9coE-4" value="Criteria Language Page" style="ellipse;whiteSpace=wrap;html=1;" vertex="1" parent="1">
          <mxGeometry x="380" y="277.5" width="120" height="80" as="geometry" />
        </mxCell>
        <mxCell id="owaRIu_LQMwWunl-9coE-5" value="" style="endArrow=none;html=1;rounded=0;" edge="1" parent="1" source="owaRIu_LQMwWunl-9coE-1" target="owaRIu_LQMwWunl-9coE-3">
          <mxGeometry width="50" height="50" relative="1" as="geometry">
            <mxPoint x="200" y="250" as="sourcePoint" />
            <mxPoint x="250" y="200" as="targetPoint" />
          </mxGeometry>
        </mxCell>
        <mxCell id="owaRIu_LQMwWunl-9coE-6" value="Accesses" style="edgeLabel;html=1;align=center;verticalAlign=middle;resizable=0;points=[];" vertex="1" connectable="0" parent="owaRIu_LQMwWunl-9coE-5">
          <mxGeometry x="-0.1476" relative="1" as="geometry">
            <mxPoint y="1" as="offset" />
          </mxGeometry>
        </mxCell>
        <mxCell id="owaRIu_LQMwWunl-9coE-7" value="" style="endArrow=none;html=1;rounded=0;" edge="1" parent="1" source="owaRIu_LQMwWunl-9coE-1" target="owaRIu_LQMwWunl-9coE-4">
          <mxGeometry width="50" height="50" relative="1" as="geometry">
            <mxPoint x="120" y="264" as="sourcePoint" />
            <mxPoint x="398" y="160" as="targetPoint" />
          </mxGeometry>
        </mxCell>
        <mxCell id="owaRIu_LQMwWunl-9coE-8" value="Accesses" style="edgeLabel;html=1;align=center;verticalAlign=middle;resizable=0;points=[];" vertex="1" connectable="0" parent="owaRIu_LQMwWunl-9coE-7">
          <mxGeometry x="-0.1476" relative="1" as="geometry">
            <mxPoint y="1" as="offset" />
          </mxGeometry>
        </mxCell>
        <mxCell id="owaRIu_LQMwWunl-9coE-9" value="Random Language Endpoint" style="ellipse;whiteSpace=wrap;html=1;" vertex="1" parent="1">
          <mxGeometry x="600" y="120" width="120" height="80" as="geometry" />
        </mxCell>
        <mxCell id="owaRIu_LQMwWunl-9coE-10" value="Criteria Language Endpoint" style="ellipse;whiteSpace=wrap;html=1;" vertex="1" parent="1">
          <mxGeometry x="590" y="390" width="120" height="80" as="geometry" />
        </mxCell>
        <mxCell id="owaRIu_LQMwWunl-9coE-11" value="Apache Jena Framework" style="ellipse;whiteSpace=wrap;html=1;" vertex="1" parent="1">
          <mxGeometry x="850" y="270" width="120" height="80" as="geometry" />
        </mxCell>
        <mxCell id="owaRIu_LQMwWunl-9coE-13" value="" style="endArrow=none;html=1;rounded=0;" edge="1" parent="1" source="owaRIu_LQMwWunl-9coE-10" target="owaRIu_LQMwWunl-9coE-11">
          <mxGeometry width="50" height="50" relative="1" as="geometry">
            <mxPoint x="130" y="490" as="sourcePoint" />
            <mxPoint x="180" y="440" as="targetPoint" />
          </mxGeometry>
        </mxCell>
        <mxCell id="owaRIu_LQMwWunl-9coE-27" value="Request a language&lt;br&gt;to achieve&amp;nbsp;&lt;br&gt;the requirements" style="edgeLabel;html=1;align=center;verticalAlign=middle;resizable=0;points=[];" vertex="1" connectable="0" parent="owaRIu_LQMwWunl-9coE-13">
          <mxGeometry x="-0.216" relative="1" as="geometry">
            <mxPoint as="offset" />
          </mxGeometry>
        </mxCell>
        <mxCell id="owaRIu_LQMwWunl-9coE-15" value="" style="endArrow=none;html=1;rounded=0;" edge="1" parent="1" source="owaRIu_LQMwWunl-9coE-10" target="owaRIu_LQMwWunl-9coE-4">
          <mxGeometry width="50" height="50" relative="1" as="geometry">
            <mxPoint x="150" y="510" as="sourcePoint" />
            <mxPoint x="200" y="460" as="targetPoint" />
          </mxGeometry>
        </mxCell>
        <mxCell id="owaRIu_LQMwWunl-9coE-18" value="Calls Endpoint" style="edgeLabel;html=1;align=center;verticalAlign=middle;resizable=0;points=[];" vertex="1" connectable="0" parent="owaRIu_LQMwWunl-9coE-15">
          <mxGeometry x="0.0145" y="1" relative="1" as="geometry">
            <mxPoint as="offset" />
          </mxGeometry>
        </mxCell>
        <mxCell id="owaRIu_LQMwWunl-9coE-16" value="" style="endArrow=none;html=1;rounded=0;" edge="1" parent="1" source="owaRIu_LQMwWunl-9coE-3" target="owaRIu_LQMwWunl-9coE-9">
          <mxGeometry width="50" height="50" relative="1" as="geometry">
            <mxPoint x="160" y="520" as="sourcePoint" />
            <mxPoint x="210" y="470" as="targetPoint" />
          </mxGeometry>
        </mxCell>
        <mxCell id="owaRIu_LQMwWunl-9coE-17" value="Calls Endpoint" style="edgeLabel;html=1;align=center;verticalAlign=middle;resizable=0;points=[];" vertex="1" connectable="0" parent="owaRIu_LQMwWunl-9coE-16">
          <mxGeometry x="-0.0999" y="-1" relative="1" as="geometry">
            <mxPoint as="offset" />
          </mxGeometry>
        </mxCell>
        <mxCell id="owaRIu_LQMwWunl-9coE-19" value="" style="endArrow=none;html=1;rounded=0;" edge="1" parent="1" source="owaRIu_LQMwWunl-9coE-24" target="owaRIu_LQMwWunl-9coE-11">
          <mxGeometry width="50" height="50" relative="1" as="geometry">
            <mxPoint x="150" y="510" as="sourcePoint" />
            <mxPoint x="200" y="460" as="targetPoint" />
          </mxGeometry>
        </mxCell>
        <mxCell id="owaRIu_LQMwWunl-9coE-26" value="Interrogates Ontology" style="edgeLabel;html=1;align=center;verticalAlign=middle;resizable=0;points=[];" vertex="1" connectable="0" parent="owaRIu_LQMwWunl-9coE-19">
          <mxGeometry x="0.3375" y="-1" relative="1" as="geometry">
            <mxPoint as="offset" />
          </mxGeometry>
        </mxCell>
        <mxCell id="owaRIu_LQMwWunl-9coE-20" value="" style="endArrow=none;html=1;rounded=0;" edge="1" parent="1" source="owaRIu_LQMwWunl-9coE-10" target="owaRIu_LQMwWunl-9coE-9">
          <mxGeometry width="50" height="50" relative="1" as="geometry">
            <mxPoint x="160" y="520" as="sourcePoint" />
            <mxPoint x="210" y="470" as="targetPoint" />
          </mxGeometry>
        </mxCell>
        <mxCell id="owaRIu_LQMwWunl-9coE-23" value="Calls Endpoint&amp;nbsp;&lt;br&gt;with random generated&lt;br&gt;criteria" style="edgeLabel;html=1;align=center;verticalAlign=middle;resizable=0;points=[];" vertex="1" connectable="0" parent="owaRIu_LQMwWunl-9coE-20">
          <mxGeometry x="0.0203" y="4" relative="1" as="geometry">
            <mxPoint as="offset" />
          </mxGeometry>
        </mxCell>
        <mxCell id="owaRIu_LQMwWunl-9coE-21" value="" style="endArrow=none;html=1;rounded=0;" edge="1" parent="1" source="owaRIu_LQMwWunl-9coE-11" target="owaRIu_LQMwWunl-9coE-9">
          <mxGeometry width="50" height="50" relative="1" as="geometry">
            <mxPoint x="170" y="530" as="sourcePoint" />
            <mxPoint x="220" y="480" as="targetPoint" />
          </mxGeometry>
        </mxCell>
        <mxCell id="owaRIu_LQMwWunl-9coE-22" value="Retrieve valid data for&amp;nbsp;&lt;br&gt;generated criteria" style="edgeLabel;html=1;align=center;verticalAlign=middle;resizable=0;points=[];" vertex="1" connectable="0" parent="owaRIu_LQMwWunl-9coE-21">
          <mxGeometry x="0.3729" y="-1" relative="1" as="geometry">
            <mxPoint x="12" as="offset" />
          </mxGeometry>
        </mxCell>
        <mxCell id="owaRIu_LQMwWunl-9coE-24" value="Ontology" style="ellipse;whiteSpace=wrap;html=1;" vertex="1" parent="1">
          <mxGeometry x="790" y="470" width="120" height="80" as="geometry" />
        </mxCell>
        <mxCell id="owaRIu_LQMwWunl-9coE-25" value="&lt;font style=&quot;font-size: 17px;&quot;&gt;ELA Software&lt;/font&gt;" style="text;html=1;strokeColor=none;fillColor=none;align=center;verticalAlign=middle;whiteSpace=wrap;rounded=0;" vertex="1" parent="1">
          <mxGeometry x="610" y="60" width="110" height="30" as="geometry" />
        </mxCell>
      </root>
    </mxGraphModel>
  </diagram>
</mxfile>
